<svg xmlns="http://www.w3.org/2000/svg" viewBox="0 0 512 512">
  <defs>
    <radialGradient id="glow" cx="50%" cy="40%" r="80%">
      <stop offset="0%" stop-color="#f5e7b9" stop-opacity="0.9" />
      <stop offset="55%" stop-color="#d4af37" stop-opacity="0.84" />
      <stop offset="100%" stop-color="#74551d" stop-opacity="0.05" />
    </radialGradient>
    <linearGradient id="shine" x1="20%" y1="15%" x2="80%" y2="80%">
      <stop offset="0%" stop-color="#fff3cc" stop-opacity="0.9" />
      <stop offset="55%" stop-color="#d4af37" stop-opacity="0.9" />
      <stop offset="100%" stop-color="#b88b27" stop-opacity="0.7" />
    </linearGradient>
    <linearGradient id="edge" x1="0%" y1="0%" x2="100%" y2="100%">
      <stop offset="0%" stop-color="#fce9aa" />
      <stop offset="68%" stop-color="#b98c24" />
      <stop offset="100%" stop-color="#4f3a12" />
    </linearGradient>
  </defs>
  <rect width="512" height="512" rx="88" fill="#060603" />
  <circle cx="256" cy="256" r="230" fill="url(#glow)" opacity="0.35" />
  <path d="M180 340c44 0 80-34 80-76 0-24-18-41-40-41h-4c-22 0-40 17-40 41v18l-28 6v17l28 5v16c0 14 11 26 25 26s25-12 25-26v-10h21v12c0 25-19 45-46 45-30 0-51-20-51-52v-38c0-44 34-77 80-77h4c44 0 80 33 80 76s-36 76-80 76h-4c-44 0-80-33-80-76v-18l-7-1v19c0 43 36 77 80 77z" fill="url(#shine)" />
  <path d="M224 175c0-18 12-30 30-30 18 0 32 13 32 31 0 18-14 31-32 31-18 0-30-13-30-32zm19 0c0 8 4 13 11 13 7 0 11-5 11-13 0-8-4-12-11-12-7 0-11 5-11 12z" fill="#fff7d1" opacity="0.9" />
  <path d="M382 126c-85-47-188-24-242 58-26 39-34 86-23 130 13 55 53 96 103 110a154 154 0 0 0 66 0c48-13 85-51 100-100 18-62 1-129-45-169zm-30 169c-11 38-37 70-71 88-45 23-100 15-136-19-31-29-44-71-37-111 10-58 54-106 110-121 26-7 54-8 81-2 40 9 75 34 95 70 15 27 20 57 14 86-5 24-18 47-36 68z" fill="rgba(255,255,255,0.08)" opacity="0.5" />
  <path d="M150 240c28-71 103-104 173-76 34 14 58 44 69 80 17 55 6 113-30 156s-95 60-151 48c-47-9-85-41-102-83-18-47-15-103 15-145z" fill="url(#edge)" opacity="0.9" />
  <path d="M170 252c18-43 53-72 99-78 38-5 74 8 99 34 22 23 35 55 34 88-1 27-9 52-24 73-18 26-44 45-75 53-40 11-82 0-113-29-26-25-42-60-41-97 1-24 9-47 20-82z" fill="url(#shine)" />
  <path d="M148 225c38-116 162-175 269-133 76 31 121 107 110 187-10 74-64 138-136 160-95 30-190-18-229-111-15-36-16-70-14-103z" fill="none" stroke="#f2dd8d" stroke-width="4" opacity="0.25" />
</svg>
